<?xml version="1.0" encoding="utf-8"?>
<!-- Generator: Adobe Illustrator 15.0.0, SVG Export Plug-In . SVG Version: 6.00 Build 0)  -->
<!DOCTYPE svg PUBLIC "-//W3C//DTD SVG 1.1//EN" "http://www.w3.org/Graphics/SVG/1.1/DTD/svg11.dtd">
<svg version="1.1" id="Layer_1" xmlns="http://www.w3.org/2000/svg" xmlns:xlink="http://www.w3.org/1999/xlink" x="0px" y="0px"
	 width="286.5px" height="41.334px" viewBox="0 0 286.5 41.334" enable-background="new 0 0 286.5 41.334" xml:space="preserve">
<path fill="#F52E00" d="M4.174,1.978c9.64-5.321,32.132,0.402,31.229,13.455c-0.302-1.907-4.117-5.522-9.038-7.731
	C22.65,5.995,13.814,4.187,11.404,7.601c-0.903,1.205-0.153,2.852,1.805,4.081c2.12,1.332,6.73,2.546,7.835,2.848
	c1.158,0.26,2.241,0.511,3.247,0.753c4.051,0.976,6.853,1.796,8.301,2.36c3.916,1.605,6.225,4.016,7.029,7.129
	c-1.708-2.209-4.217-3.917-7.13-5.021c-9.941-3.715-18.676-3.815-24.3-6.225C0.56,10.313,0.76,5.593,4.174,1.978L4.174,1.978z"/>
<path fill="#FCC419" d="M32.49,19.751c-9.941-3.715-18.676-3.815-24.3-6.225C0.56,10.313,0.76,5.593,4.174,1.978
	c-3.013,1.707-4.719,4.418-4.017,8.436c1.205,6.728,8.234,8.133,16.769,8.835c9.841,0.904,16.567,0,22.693,5.523
	C37.912,22.563,35.402,20.856,32.49,19.751z"/>
<path fill="#F52E00" d="M36.446,39.356c-9.64,5.318-32.132-0.402-31.229-13.455c0.302,1.906,4.117,5.521,9.038,7.729
	c3.715,1.707,12.551,3.518,14.961,0.104c0.903-1.205,0.153-2.854-1.805-4.082c-2.12-1.33-6.73-2.545-7.835-2.848
	c-1.158-0.261-2.241-0.512-3.247-0.754c-4.051-0.977-6.853-1.797-8.301-2.359C4.113,22.085,1.804,19.675,1,16.562
	c1.708,2.209,4.217,3.916,7.13,5.021c9.941,3.716,18.676,3.814,24.3,6.227C40.06,31.022,39.86,35.741,36.446,39.356L36.446,39.356z"
	/>
<path fill="#FCC419" d="M8.13,21.583c9.941,3.716,18.676,3.814,24.3,6.227c7.63,3.213,7.43,7.935,4.016,11.547
	c3.013-1.707,4.719-4.418,4.017-8.436c-1.205-6.729-8.234-8.133-16.769-8.835c-9.841-0.903-16.567,0-22.693-5.523
	C2.708,18.771,5.217,20.478,8.13,21.583z"/>
<g>
	<path fill="#FFFFFF" stroke="#FFFFFF" stroke-width="0.75" stroke-miterlimit="10" d="M64.049,15.279
		c0-0.877-0.313-1.667-0.939-2.368c-1.078-1.178-2.544-1.767-4.398-1.767c-1.078,0-2.093,0.251-3.045,0.752
		c-1.529,0.802-2.293,1.93-2.293,3.383c0,0.25,0.062,0.514,0.188,0.789c0.426,0.827,1.842,1.705,4.248,2.631
		c2.982,1.178,4.774,1.905,5.375,2.181c3.032,1.528,4.548,3.42,4.548,5.676c-0.025,1.604-0.702,3.082-2.03,4.438
		c-1.83,1.805-4.16,2.707-6.992,2.707c-2.457,0-4.574-0.689-6.353-2.068c-1.779-1.428-2.669-3.117-2.669-5.072h3.007
		c0.025,0.877,0.401,1.68,1.128,2.404c1.228,1.152,2.857,1.729,4.887,1.729c1.278,0,2.468-0.274,3.571-0.825
		c1.629-0.828,2.443-1.931,2.443-3.31c0-0.274-0.075-0.552-0.226-0.828c-0.426-0.852-1.854-1.754-4.285-2.705
		c-2.957-1.151-4.724-1.866-5.3-2.144c-3.032-1.504-4.548-3.371-4.548-5.601c0-1.629,0.602-3.107,1.804-4.437
		c1.654-1.804,3.834-2.707,6.541-2.707c2.155,0,4.034,0.627,5.638,1.88c1.805,1.428,2.707,3.183,2.707,5.263H64.049L64.049,15.279z"
		/>
	<path fill="#FFFFFF" stroke="#FFFFFF" stroke-width="0.75" stroke-miterlimit="10" d="M89.911,8.136h1.504v3.007h-1.504h-6.729
		v21.051v1.504h-3.007v-1.504v-21.05h-6.804h-1.503V8.136h1.503h6.804h3.007H89.911z"/>
	<path fill="#FFFFFF" stroke="#FFFFFF" stroke-width="0.75" stroke-miterlimit="10" d="M116.525,31.78l0.602,1.918h-3.158
		l-0.301-1.092c-0.827-2.73-1.579-4.822-2.255-6.276c-0.802-1.679-1.817-2.981-3.045-3.909h-7.556v9.773v1.504h-3.007v-1.504v-9.773
		v-1.504l0.038-11.239V8.174h1.504l9.51-0.038c1.955,0,3.659,0.602,5.112,1.805c1.754,1.428,2.631,3.22,2.631,5.375
		c0,0.802-0.15,1.591-0.451,2.368c-0.702,1.879-2.043,3.246-4.022,4.098C113.581,23.485,115.046,26.819,116.525,31.78z
		 M104.083,19.414h4.812c0.927,0,1.792-0.226,2.594-0.677c1.403-0.802,2.105-1.942,2.105-3.42c0-0.852-0.276-1.641-0.827-2.368
		c-0.927-1.203-2.23-1.805-3.909-1.805h-8.044v8.308h3.308L104.083,19.414z"/>
	<path fill="#FFFFFF" stroke="#FFFFFF" stroke-width="0.75" stroke-miterlimit="10" d="M123.968,33.698h-3.271l0.902-2.105
		l9.773-22.554l0.413-0.902h1.955l0.413,0.902l9.773,22.554l0.902,2.105h-3.271l-0.413-0.902l-8.383-19.359l-8.382,19.359
		L123.968,33.698z"/>
	<path fill="#FFFFFF" stroke="#FFFFFF" stroke-width="0.75" stroke-miterlimit="10" d="M165.467,8.136h1.504v3.007h-1.504h-6.729
		v21.051v1.504h-3.008v-1.504v-21.05h-6.805h-1.504V8.136h1.504h6.805h3.008H165.467z"/>
	<path fill="#FFFFFF" stroke="#FFFFFF" stroke-width="0.75" stroke-miterlimit="10" d="M191.404,8.136v3.007H189.9h-13.532v8.27
		h9.473h1.503v3.007h-1.503h-9.473v8.271H189.9h1.504v3.009H189.9h-15.037h-1.504v-1.505v-9.772v-3.007V9.64V8.136h1.504H189.9
		H191.404z"/>
	<path fill="#FFFFFF" stroke="#FFFFFF" stroke-width="0.75" stroke-miterlimit="10" d="M199.298,8.136h3.009V9.64v21.05h10.523
		h1.504v3.008h-1.504h-12.028h-1.504v-1.504V9.64V8.136z"/>
	<path fill="#FFFFFF" stroke="#FFFFFF" stroke-width="0.75" stroke-miterlimit="10" d="M220.197,8.136h3.008V9.64v22.554v1.504
		h-3.008v-1.504V9.64V8.136z"/>
	<path fill="#FFFFFF" stroke="#FFFFFF" stroke-width="0.75" stroke-miterlimit="10" d="M233.616,11.67
		c2.181-2.355,4.774-3.534,7.78-3.534c3.008,0.025,5.612,1.216,7.818,3.571c2.307,2.506,3.458,5.576,3.458,9.209
		c0,3.634-1.165,6.717-3.496,9.247c-2.18,2.355-4.772,3.533-7.78,3.533c-3.006-0.024-5.612-1.215-7.817-3.571
		c-2.306-2.505-3.458-5.575-3.458-9.209C230.121,17.284,231.286,14.201,233.616,11.67z M235.309,27.533
		c1.629,2.104,3.658,3.157,6.09,3.157c2.104-0.024,3.947-0.864,5.525-2.521c1.828-1.954,2.744-4.372,2.744-7.255
		c0-2.505-0.729-4.711-2.182-6.616c-1.629-2.105-3.658-3.158-6.09-3.158c-2.104,0.025-3.945,0.865-5.524,2.519
		c-1.83,1.955-2.744,4.374-2.744,7.255C233.128,23.423,233.854,25.629,235.309,27.533z"/>
	<path fill="#FFFFFF" stroke="#FFFFFF" stroke-width="0.75" stroke-miterlimit="10" d="M272.673,15.279
		c0-0.877-0.313-1.667-0.94-2.368c-1.075-1.178-2.543-1.767-4.396-1.767c-1.078,0-2.093,0.251-3.045,0.752
		c-1.528,0.802-2.293,1.93-2.293,3.383c0,0.25,0.063,0.514,0.188,0.789c0.426,0.827,1.844,1.705,4.248,2.631
		c2.981,1.178,4.773,1.905,5.375,2.181c3.031,1.528,4.549,3.42,4.549,5.676c-0.024,1.604-0.701,3.082-2.029,4.438
		c-1.829,1.805-4.16,2.707-6.991,2.707c-2.456,0-4.573-0.689-6.353-2.068c-1.78-1.428-2.67-3.117-2.67-5.072h3.008
		c0.023,0.877,0.4,1.68,1.128,2.404c1.228,1.152,2.856,1.729,4.887,1.729c1.278,0,2.468-0.274,3.571-0.825
		c1.628-0.828,2.443-1.931,2.443-3.31c0-0.274-0.076-0.552-0.228-0.828c-0.429-0.852-1.854-1.754-4.285-2.705
		c-2.958-1.151-4.725-1.866-5.301-2.144c-3.032-1.504-4.549-3.371-4.549-5.601c0-1.629,0.602-3.107,1.805-4.437
		c1.654-1.804,3.834-2.707,6.541-2.707c2.153,0,4.034,0.627,5.64,1.88c1.805,1.428,2.705,3.183,2.705,5.263H272.673L272.673,15.279
		L272.673,15.279z"/>
</g>
</svg>
